<svg xmlns="http://www.w3.org/2000/svg" viewBox="0.40 -146.30 1287.60 195.30"><path d="M12.4 33.800000000000004V-51.6V-105.60000000000001H38.800000000000004L39.2 -75.60000000000001L42.800000000000004 -75.2Q44.6 -86.4 49.2 -93.80000000000001Q53.800000000000004 -101.2 61.10000000000001 -104.80000000000001Q68.4 -108.4 77.80000000000001 -108.4Q91.80000000000001 -108.4 101.9 -101.60000000000001Q112.0 -94.80000000000001 117.4 -82.20000000000002Q122.80000000000001 -69.60000000000001 122.80000000000001 -52.0Q122.80000000000001 -36.4 118.10000000000001 -24.0Q113.4 -11.600000000000001 103.9 -4.4Q94.4 2.8000000000000003 79.80000000000001 2.8000000000000003Q70.0 2.8000000000000003 63.2 -0.7Q56.400000000000006 -4.2 51.7 -11.0Q47.0 -17.8 43.800000000000004 -28.0H40.0Q41.2 -22.6 42.2 -17.0Q43.2 -11.4 43.900000000000006 -6.2Q44.6 -1.0 44.6 3.8000000000000003V33.800000000000004ZM68.0 -22.6Q74.60000000000001 -22.6 79.30000000000001 -26.200000000000003Q84.0 -29.8 86.6 -36.4Q89.2 -43.0 89.2 -51.800000000000004Q89.2 -61.2 86.5 -67.9Q83.80000000000001 -74.60000000000001 78.80000000000001 -78.30000000000001Q73.8 -82.0 67.2 -82.0Q61.0 -82.0 56.7 -79.30000000000001Q52.400000000000006 -76.60000000000001 49.7 -72.30000000000001Q47.0 -68.0 45.8 -63.2Q44.6 -58.400000000000006 44.6 -54.2V-49.800000000000004Q44.6 -46.0 45.6 -42.2Q46.6 -38.400000000000006 48.6 -34.900000000000006Q50.6 -31.400000000000002 53.400000000000006 -28.6Q56.2 -25.8 59.900000000000006 -24.200000000000003Q63.6 -22.6 68.0 -22.6Z M283.0 0.0V-68.2V-105.60000000000001H308.40000000000003L308.8 -74.60000000000001H312.8Q315.6 -86.0 320.20000000000005 -93.5Q324.8 -101.0 331.4 -104.7Q338.0 -108.4 346.8 -108.4Q356.0 -108.4 362.1 -104.5Q368.20000000000005 -100.60000000000001 371.80000000000007 -93.10000000000001Q375.40000000000003 -85.60000000000001 376.6 -74.60000000000001H380.0Q383.20000000000005 -86.4 388.40000000000003 -93.9Q393.6 -101.4 400.8 -104.9Q408.0 -108.4 416.40000000000003 -108.4Q425.40000000000003 -108.4 432.1 -104.9Q438.80000000000007 -101.4 443.30000000000007 -94.5Q447.80000000000007 -87.60000000000001 450.00000000000006 -77.30000000000001Q452.20000000000005 -67.0 452.20000000000005 -53.400000000000006V0.0H419.80000000000007V-49.400000000000006Q419.80000000000007 -60.0 418.1 -67.0Q416.40000000000003 -74.0 412.80000000000007 -77.5Q409.20000000000005 -81.0 403.6 -81.0Q397.20000000000005 -81.0 392.70000000000005 -76.80000000000001Q388.20000000000005 -72.60000000000001 385.80000000000007 -65.10000000000001Q383.40000000000003 -57.6 383.40000000000003 -48.2V0.0H351.8V-48.800000000000004Q351.8 -59.800000000000004 349.9 -66.8Q348.0 -73.8 344.3 -77.4Q340.6 -81.0 335.0 -81.0Q328.6 -81.0 324.20000000000005 -76.80000000000001Q319.8 -72.60000000000001 317.5 -65.10000000000001Q315.20000000000005 -57.6 315.20000000000005 -48.2V0.0Z M516.8000000000001 2.8000000000000003Q503.6 2.8000000000000003 493.20000000000005 -0.7Q482.80000000000007 -4.2 475.50000000000006 -11.0Q468.20000000000005 -17.8 464.40000000000003 -27.800000000000004Q460.6 -37.800000000000004 460.6 -50.800000000000004Q460.6 -63.400000000000006 464.30000000000007 -74.0Q468.00000000000006 -84.60000000000001 474.9000000000001 -92.30000000000001Q481.80000000000007 -100.0 491.9000000000001 -104.2Q502.00000000000006 -108.4 514.6 -108.4Q527.4000000000001 -108.4 537.1000000000001 -104.30000000000001Q546.8000000000001 -100.2 553.1000000000001 -92.2Q559.4000000000001 -84.2 562.4000000000001 -72.7Q565.4000000000001 -61.2 564.4000000000001 -46.400000000000006L481.80000000000007 -45.800000000000004V-62.6L546.0 -63.2L534.6 -55.400000000000006Q536.0 -65.4 533.4000000000001 -71.7Q530.8000000000001 -78.0 525.8000000000001 -80.9Q520.8000000000001 -83.80000000000001 515.0 -83.80000000000001Q508.00000000000006 -83.80000000000001 502.70000000000005 -80.0Q497.40000000000003 -76.2 494.40000000000003 -69.0Q491.40000000000003 -61.800000000000004 491.40000000000003 -51.400000000000006Q491.40000000000003 -35.0 498.5 -27.6Q505.6 -20.200000000000003 516.6 -20.200000000000003Q522.0 -20.200000000000003 525.6 -21.700000000000003Q529.2 -23.200000000000003 531.5 -25.5Q533.8000000000001 -27.8 535.1000000000001 -30.6Q536.4000000000001 -33.4 537.2 -36.0L565.2 -30.0Q563.6 -22.6 560.1 -16.6Q556.6 -10.600000000000001 550.7 -6.200000000000001Q544.8000000000001 -1.8 536.5 0.5000000000000001Q528.2 2.8000000000000003 516.8000000000001 2.8000000000000003Z M617.6 37.0Q600.0 37.0 588.7 34.3Q577.4 31.6 572.2 26.3Q567.0 21.0 567.0 13.4Q567.0 4.2 574.3 -1.6Q581.6 -7.4 595.8000000000001 -8.200000000000001V-12.4Q584.8000000000001 -12.4 578.9000000000001 -14.600000000000001Q573.0 -16.8 573.0 -22.8Q573.0 -28.400000000000002 578.8 -33.0Q584.6 -37.6 598.0 -40.2V-44.400000000000006Q585.8000000000001 -45.400000000000006 578.6 -52.5Q571.4 -59.6 571.4 -71.2Q571.4 -81.0 577.0 -89.1Q582.6 -97.2 593.8 -102.1Q605.0 -107.0 621.8000000000001 -107.0H676.6V-82.80000000000001L643.2 -87.2V-82.4Q656.2 -80.60000000000001 661.8000000000001 -76.4Q667.4000000000001 -72.2 667.4000000000001 -64.60000000000001Q667.4000000000001 -56.6 661.9000000000001 -50.400000000000006Q656.4000000000001 -44.2 646.4000000000001 -40.7Q636.4 -37.2 622.6 -37.2Q620.2 -37.2 617.3 -37.400000000000006Q614.4 -37.6 606.6 -38.400000000000006Q603.4 -35.6 601.6 -33.7Q599.8000000000001 -31.8 599.8000000000001 -30.200000000000003Q599.8000000000001 -29.0 600.8000000000001 -28.200000000000003Q601.8000000000001 -27.400000000000002 603.7 -27.1Q605.6 -26.8 607.8000000000001 -26.8H640.0Q644.0 -26.8 650.5 -26.3Q657.0 -25.8 663.5 -23.200000000000003Q670.0 -20.6 674.5 -14.8Q679.0 -9.0 679.0 1.8Q679.0 13.600000000000001 672.4000000000001 21.5Q665.8000000000001 29.400000000000002 652.2 33.2Q638.6 37.0 617.6 37.0ZM621.8000000000001 11.4Q633.4 11.4 639.8 10.2Q646.2 9.0 648.7 6.4Q651.2 3.8000000000000003 651.2 0.0Q651.2 -3.6 649.8000000000001 -5.7Q648.4000000000001 -7.800000000000001 646.2 -8.600000000000001Q644.0 -9.4 641.7 -9.600000000000001Q639.4000000000001 -9.8 637.8000000000001 -9.8H612.0Q604.6 -9.8 601.1 -6.300000000000001Q597.6 -2.8000000000000003 597.6 1.8Q597.6 5.6000000000000005 600.0 7.700000000000001Q602.4 9.8 607.7 10.600000000000001Q613.0 11.4 621.8000000000001 11.4ZM620.4 -53.2Q629.0 -53.2 633.3 -57.800000000000004Q637.6 -62.400000000000006 637.6 -69.4Q637.6 -77.0 633.2 -81.9Q628.8000000000001 -86.80000000000001 620.6 -86.80000000000001Q612.4 -86.80000000000001 607.8 -81.9Q603.2 -77.0 603.2 -69.4Q603.2 -64.8 605.2 -61.1Q607.2 -57.400000000000006 611.0 -55.300000000000004Q614.8000000000001 -53.2 620.4 -53.2Z M687.4 0.0V-49.0V-105.60000000000001H713.8L714.4 -69.8H718.4Q719.8 -83.80000000000001 723.7 -92.10000000000001Q727.6 -100.4 734.9000000000001 -104.2Q742.2 -108.0 753.0 -108.0Q754.6 -108.0 756.6 -107.9Q758.6 -107.80000000000001 761.2 -107.4L760.0 -73.0Q756.8 -74.60000000000001 753.0999999999999 -75.10000000000001Q749.4 -75.60000000000001 746.6 -75.60000000000001Q738.8 -75.60000000000001 733.0999999999999 -72.60000000000001Q727.4 -69.60000000000001 724.0999999999999 -63.400000000000006Q720.8 -57.2 719.8 -47.800000000000004V0.0Z M790.8000000000001 2.8000000000000003Q782.0 2.8000000000000003 775.2 -0.7Q768.4 -4.2 764.6 -10.9Q760.8000000000001 -17.6 760.8000000000001 -27.200000000000003Q760.8000000000001 -36.2 764.3000000000001 -42.1Q767.8000000000001 -48.0 774.5 -51.5Q781.2 -55.0 790.6 -57.3Q800.0 -59.6 812.0 -61.400000000000006Q817.8000000000001 -62.400000000000006 821.7 -63.300000000000004Q825.6 -64.2 827.6 -66.2Q829.6 -68.2 829.6 -72.0Q829.6 -77.0 826.0 -80.6Q822.4 -84.2 814.4 -84.2Q808.8000000000001 -84.2 804.3000000000001 -82.2Q799.8000000000001 -80.2 796.6 -76.4Q793.4 -72.60000000000001 791.8000000000001 -67.2L763.4 -75.60000000000001Q766.0 -84.0 770.7 -90.2Q775.4 -96.4 782.0 -100.5Q788.6 -104.60000000000001 797.1 -106.5Q805.6 -108.4 815.2 -108.4Q831.2 -108.4 841.3000000000001 -103.30000000000001Q851.4000000000001 -98.2 856.3000000000001 -87.5Q861.2 -76.80000000000001 861.2 -60.0V-43.800000000000004Q861.2 -36.6 861.5 -29.3Q861.8000000000001 -22.0 862.3000000000001 -14.7Q862.8000000000001 -7.4 863.6 0.0H835.2Q834.4000000000001 -4.6000000000000005 833.6000000000001 -11.100000000000001Q832.8000000000001 -17.6 832.4000000000001 -24.400000000000002H828.6Q825.8000000000001 -16.8 820.5 -10.5Q815.2 -4.2 807.7 -0.7Q800.2 2.8000000000000003 790.8000000000001 2.8000000000000003ZM805.4 -20.0Q809.0 -20.0 812.7 -21.3Q816.4 -22.6 819.8 -24.900000000000002Q823.2 -27.200000000000003 826.0 -30.6Q828.8000000000001 -34.0 830.2 -38.0L829.8000000000001 -53.800000000000004L834.2 -52.800000000000004Q830.4000000000001 -50.400000000000006 825.8000000000001 -49.0Q821.2 -47.6 816.5 -46.8Q811.8000000000001 -46.0 807.3000000000001 -45.1Q802.8000000000001 -44.2 799.3000000000001 -42.800000000000004Q795.8000000000001 -41.400000000000006 793.8000000000001 -39.0Q791.8000000000001 -36.6 791.8000000000001 -32.4Q791.8000000000001 -26.8 795.6 -23.4Q799.4 -20.0 805.4 -20.0Z M876.0 0.0V-63.6V-105.60000000000001H902.0L902.4 -74.60000000000001H906.4Q909.0 -85.80000000000001 913.8 -93.4Q918.6 -101.0 926.0 -104.7Q933.4 -108.4 943.4000000000001 -108.4Q962.0 -108.4 971.7 -95.4Q981.4000000000001 -82.4 981.4000000000001 -54.0V0.0H949.0V-50.400000000000006Q949.0 -66.8 944.3 -74.30000000000001Q939.6 -81.80000000000001 930.4 -81.80000000000001Q922.8000000000001 -81.80000000000001 917.9000000000001 -77.20000000000002Q913.0 -72.60000000000001 910.6 -65.0Q908.2 -57.400000000000006 908.2 -48.0V0.0Z M1020.4000000000001 2.8000000000000003Q1011.6 2.8000000000000003 1004.8 -0.7Q998.0 -4.2 994.2 -10.9Q990.4000000000001 -17.6 990.4000000000001 -27.200000000000003Q990.4000000000001 -36.2 993.9000000000001 -42.1Q997.4000000000001 -48.0 1004.1000000000001 -51.5Q1010.8000000000001 -55.0 1020.2 -57.3Q1029.6000000000001 -59.6 1041.6000000000001 -61.400000000000006Q1047.4 -62.400000000000006 1051.3000000000002 -63.300000000000004Q1055.2 -64.2 1057.2 -66.2Q1059.2 -68.2 1059.2 -72.0Q1059.2 -77.0 1055.6 -80.6Q1052.0 -84.2 1044.0 -84.2Q1038.4 -84.2 1033.9 -82.2Q1029.4 -80.2 1026.2 -76.4Q1023.0 -72.60000000000001 1021.4000000000001 -67.2L993.0 -75.60000000000001Q995.6 -84.0 1000.3 -90.2Q1005.0 -96.4 1011.6 -100.5Q1018.2 -104.60000000000001 1026.7 -106.5Q1035.2 -108.4 1044.8 -108.4Q1060.8 -108.4 1070.9 -103.30000000000001Q1081.0 -98.2 1085.9 -87.5Q1090.8 -76.80000000000001 1090.8 -60.0V-43.800000000000004Q1090.8 -36.6 1091.1 -29.3Q1091.4 -22.0 1091.9 -14.7Q1092.4 -7.4 1093.2 0.0H1064.8Q1064.0 -4.6000000000000005 1063.2 -11.100000000000001Q1062.4 -17.6 1062.0 -24.400000000000002H1058.2Q1055.4 -16.8 1050.1 -10.5Q1044.8 -4.2 1037.3 -0.7Q1029.8 2.8000000000000003 1020.4000000000001 2.8000000000000003ZM1035.0 -20.0Q1038.6000000000001 -20.0 1042.3000000000002 -21.3Q1046.0 -22.6 1049.4 -24.900000000000002Q1052.8 -27.200000000000003 1055.6 -30.6Q1058.4 -34.0 1059.8 -38.0L1059.4 -53.800000000000004L1063.8 -52.800000000000004Q1060.0 -50.400000000000006 1055.4 -49.0Q1050.8 -47.6 1046.1 -46.8Q1041.4 -46.0 1036.9 -45.1Q1032.4 -44.2 1028.9 -42.800000000000004Q1025.4 -41.400000000000006 1023.4000000000001 -39.0Q1021.4000000000001 -36.6 1021.4000000000001 -32.4Q1021.4000000000001 -26.8 1025.2 -23.4Q1029.0 -20.0 1035.0 -20.0Z M1146.8 2.6Q1128.2 2.6 1119.4 -7.3Q1110.6000000000001 -17.2 1110.6000000000001 -39.0V-80.4H1095.6000000000001L1096.2 -105.4H1107.0Q1113.4 -105.60000000000001 1116.7 -107.4Q1120.0 -109.2 1120.8 -114.2L1123.4 -129.0H1141.6000000000001V-105.60000000000001H1167.0V-79.4H1141.6000000000001V-40.400000000000006Q1141.6000000000001 -33.6 1144.9 -30.400000000000002Q1148.2 -27.200000000000003 1155.0 -27.200000000000003Q1158.8 -27.200000000000003 1162.2 -28.0Q1165.6000000000001 -28.8 1167.8 -30.200000000000003V-0.4Q1161.4 1.6 1156.1 2.1Q1150.8 2.6 1146.8 2.6Z M1227.6 2.8000000000000003Q1214.4 2.8000000000000003 1204.0 -0.7Q1193.6 -4.2 1186.3 -11.0Q1179.0 -17.8 1175.2 -27.800000000000004Q1171.4 -37.800000000000004 1171.4 -50.800000000000004Q1171.4 -63.400000000000006 1175.1 -74.0Q1178.8 -84.60000000000001 1185.6999999999998 -92.30000000000001Q1192.6 -100.0 1202.6999999999998 -104.2Q1212.8 -108.4 1225.4 -108.4Q1238.2 -108.4 1247.9 -104.30000000000001Q1257.6 -100.2 1263.9 -92.2Q1270.2 -84.2 1273.2 -72.7Q1276.2 -61.2 1275.2 -46.400000000000006L1192.6 -45.800000000000004V-62.6L1256.8 -63.2L1245.4 -55.400000000000006Q1246.8 -65.4 1244.1999999999998 -71.7Q1241.6 -78.0 1236.6 -80.9Q1231.6 -83.80000000000001 1225.8 -83.80000000000001Q1218.8 -83.80000000000001 1213.5 -80.0Q1208.2 -76.2 1205.2 -69.0Q1202.2 -61.800000000000004 1202.2 -51.400000000000006Q1202.2 -35.0 1209.3000000000002 -27.6Q1216.4 -20.200000000000003 1227.4 -20.200000000000003Q1232.8 -20.200000000000003 1236.4 -21.700000000000003Q1240.0 -23.200000000000003 1242.3 -25.5Q1244.6 -27.8 1245.9 -30.6Q1247.2 -33.4 1248.0 -36.0L1276.0 -30.0Q1274.4 -22.6 1270.9 -16.6Q1267.4 -10.600000000000001 1261.5 -6.200000000000001Q1255.6 -1.8 1247.3 0.5000000000000001Q1239.0 2.8000000000000003 1227.6 2.8000000000000003Z" fill="#f3f2ee"/><g transform="translate(122.60 -138.00) scale(1.2333)"><path d="M68.00 37.00 C82.08 44.87 101.26 43.76 110.00 41.00 C101.94 36.64 83.32 31.93 68.00 37.00 Z" fill="#4e9c83"/><path d="M68.00 37.00 C82.08 44.87 101.26 43.76 110.00 41.00 Q88.93 39.78 68.00 37.00 Z" fill="#79c2a8"/><path d="M68.00 37.00 Q88.93 39.78 110.00 41.00" fill="none" stroke="#0d3b40" stroke-opacity=".35" stroke-width="0.9" stroke-linecap="round"/><path d="M66.00 33.00 C87.31 31.36 106.27 15.09 113.00 5.00 C100.93 6.11 77.59 15.04 66.00 33.00 Z" fill="#4e9c83"/><path d="M66.00 33.00 C87.31 31.36 106.27 15.09 113.00 5.00 Q90.08 19.98 66.00 33.00 Z" fill="#79c2a8"/><path d="M66.00 33.00 Q90.08 19.98 113.00 5.00" fill="none" stroke="#0d3b40" stroke-opacity=".35" stroke-width="0.9" stroke-linecap="round"/><path d="M49 47 C49.5 41 51 37 51.5 32.5 L68.5 32.5 C69 37 70.5 41 71 47 Z" fill="#d99cb0"/><path d="M50.44 37.90 Q45.81 34.46 41.96 29.77 Q50.19 27.44 55.31 30.10 Z" fill="#d99cb0"/><path d="M52.88 34.00 L41.96 29.77 Q45.81 34.46 50.44 37.90 Z" fill="#f3d3de"/><path d="M51.49 36.57 Q48.10 30.72 45.93 24.04 Q54.96 26.09 59.12 31.43 Z" fill="#d99cb0"/><path d="M55.30 34.00 L45.93 24.04 Q48.10 30.72 51.49 36.57 Z" fill="#f3d3de"/><path d="M53.88 34.88 Q52.95 27.67 53.47 20.19 Q61.08 26.09 62.91 33.12 Z" fill="#d99cb0"/><path d="M58.40 34.00 L53.47 20.19 Q52.95 27.67 53.88 34.88 Z" fill="#f3d3de"/><path d="M57.09 33.12 Q58.92 26.09 66.53 20.19 Q67.05 27.67 66.12 34.88 Z" fill="#d99cb0"/><path d="M61.60 34.00 L66.53 20.19 Q58.92 26.09 57.09 33.12 Z" fill="#f3d3de"/><path d="M60.88 31.43 Q65.04 26.09 74.07 24.04 Q71.90 30.72 68.51 36.57 Z" fill="#d99cb0"/><path d="M64.70 34.00 L74.07 24.04 Q65.04 26.09 60.88 31.43 Z" fill="#f3d3de"/><path d="M64.69 30.10 Q69.81 27.44 78.04 29.77 Q74.19 34.46 69.56 37.90 Z" fill="#d99cb0"/><path d="M67.12 34.00 L78.04 29.77 Q69.81 27.44 64.69 30.10 Z" fill="#f3d3de"/><path d="M60.00 42.29 C61.23 42.29 62.48 42.36 63.70 42.48 C64.93 42.60 66.15 42.79 67.34 43.01 C68.54 43.24 69.72 43.53 70.87 43.84 C72.02 44.15 73.15 44.51 74.26 44.89 C75.38 45.26 76.46 45.66 77.53 46.09 C78.61 46.51 79.66 46.94 80.71 47.41 C81.75 47.88 82.78 48.35 83.80 48.88 C84.82 49.40 85.82 49.94 86.81 50.55 C87.79 51.15 88.77 51.79 89.70 52.51 C90.63 53.22 91.55 54.00 92.40 54.85 C93.25 55.70 94.07 56.64 94.82 57.62 C95.57 58.59 96.26 59.64 96.88 60.71 C97.50 61.78 98.05 62.90 98.53 64.03 C99.00 65.17 99.40 66.35 99.74 67.53 C100.08 68.72 100.35 69.93 100.57 71.13 C100.79 72.33 100.95 73.55 101.07 74.76 C101.20 75.97 101.28 77.18 101.33 78.38 C101.39 79.59 101.41 80.79 101.41 82.00 C101.41 83.21 101.39 84.41 101.33 85.62 C101.28 86.82 101.20 88.03 101.07 89.24 C100.95 90.45 100.79 91.67 100.57 92.87 C100.35 94.07 100.08 95.28 99.74 96.47 C99.40 97.65 99.00 98.83 98.53 99.97 C98.05 101.10 97.50 102.22 96.88 103.29 C96.26 104.36 95.57 105.40 94.82 106.38 C94.07 107.36 93.25 108.30 92.40 109.19 C91.55 110.07 90.63 110.92 89.70 111.70 C88.77 112.48 87.79 113.22 86.81 113.88 C85.82 114.55 84.82 115.12 83.80 115.71 C82.78 116.30 81.75 116.86 80.71 117.40 C79.66 117.94 78.61 118.47 77.53 118.98 C76.46 119.48 75.38 119.98 74.26 120.43 C73.15 120.89 72.02 121.33 70.87 121.71 C69.72 122.09 68.54 122.44 67.34 122.71 C66.15 122.99 64.93 123.22 63.70 123.36 C62.48 123.51 61.23 123.59 60.00 123.59 C58.77 123.59 57.52 123.51 56.30 123.36 C55.07 123.22 53.85 122.99 52.66 122.71 C51.46 122.44 50.28 122.09 49.13 121.71 C47.98 121.33 46.85 120.89 45.74 120.43 C44.62 119.98 43.54 119.48 42.47 118.98 C41.39 118.47 40.34 117.94 39.29 117.40 C38.25 116.86 37.22 116.30 36.20 115.71 C35.18 115.12 34.18 114.55 33.19 113.88 C32.21 113.22 31.23 112.48 30.30 111.70 C29.37 110.92 28.45 110.07 27.60 109.19 C26.75 108.30 25.93 107.36 25.18 106.38 C24.43 105.40 23.74 104.36 23.12 103.29 C22.50 102.22 21.95 101.10 21.47 99.97 C21.00 98.83 20.60 97.65 20.26 96.47 C19.92 95.28 19.65 94.07 19.43 92.87 C19.21 91.67 19.05 90.45 18.93 89.24 C18.80 88.03 18.72 86.82 18.67 85.62 C18.61 84.41 18.59 83.21 18.59 82.00 C18.59 80.79 18.61 79.59 18.67 78.38 C18.72 77.18 18.80 75.97 18.93 74.76 C19.05 73.55 19.21 72.33 19.43 71.13 C19.65 69.93 19.92 68.72 20.26 67.53 C20.60 66.35 21.00 65.17 21.47 64.03 C21.95 62.90 22.50 61.78 23.12 60.71 C23.74 59.64 24.43 58.59 25.18 57.62 C25.93 56.64 26.75 55.70 27.60 54.85 C28.45 54.00 29.37 53.22 30.30 52.51 C31.23 51.79 32.21 51.15 33.19 50.55 C34.18 49.94 35.18 49.40 36.20 48.88 C37.22 48.35 38.25 47.88 39.29 47.41 C40.34 46.94 41.39 46.51 42.47 46.09 C43.54 45.66 44.62 45.26 45.74 44.89 C46.85 44.51 47.98 44.15 49.13 43.84 C50.28 43.53 51.46 43.24 52.66 43.01 C53.85 42.79 55.07 42.60 56.30 42.48 C57.52 42.36 58.77 42.29 60.00 42.29 Z" fill="#9d1934"/><path d="M69.37 43.46 L85.96 50.04 L71.24 55.64 Z" fill="#c52340" stroke="#c52340" stroke-width="0.35"/><path d="M85.96 50.04 L98.32 63.55 L81.04 76.00 L71.24 55.64 Z" fill="#aa1b37" stroke="#aa1b37" stroke-width="0.35"/><path d="M71.24 55.64 L81.04 76.00 L65.22 80.92 L65.22 71.08 Z" fill="#b31d39" stroke="#b31d39" stroke-width="0.35"/><path d="M69.37 43.46 L71.24 55.64 L49.21 50.61 Z" fill="#d53954" stroke="#d53954" stroke-width="0.35"/><path d="M98.32 63.55 L101.41 82.00 L81.04 76.00 Z" fill="#93162f" stroke="#93162f" stroke-width="0.35"/><path d="M101.41 82.00 L98.32 100.45 L71.24 96.36 L81.04 76.00 Z" fill="#821227" stroke="#821227" stroke-width="0.35"/><path d="M81.04 76.00 L71.24 96.36 L57.52 87.06 L65.22 80.92 Z" fill="#8e152d" stroke="#8e152d" stroke-width="0.35"/><path d="M98.32 63.55 L81.04 76.00 L71.24 55.64 Z" fill="#a41a36" stroke="#a41a36" stroke-width="0.35"/><path d="M98.32 100.45 L85.96 114.42 L71.24 96.36 Z" fill="#7b1023" stroke="#7b1023" stroke-width="0.35"/><path d="M85.96 114.42 L69.37 122.17 L49.21 101.39 L71.24 96.36 Z" fill="#7c1124" stroke="#7c1124" stroke-width="0.35"/><path d="M71.24 96.36 L49.21 101.39 L47.93 84.87 L57.52 87.06 Z" fill="#951730" stroke="#951730" stroke-width="0.35"/><path d="M98.32 100.45 L71.24 96.36 L81.04 76.00 Z" fill="#7f1126" stroke="#7f1126" stroke-width="0.35"/><path d="M69.37 122.17 L50.63 122.17 L49.21 101.39 Z" fill="#861329" stroke="#861329" stroke-width="0.35"/><path d="M50.63 122.17 L34.04 114.42 L31.54 87.30 L49.21 101.39 Z" fill="#9a1833" stroke="#9a1833" stroke-width="0.35"/><path d="M49.21 101.39 L31.54 87.30 L43.66 76.00 L47.93 84.87 Z" fill="#c3203e" stroke="#c3203e" stroke-width="0.35"/><path d="M69.37 122.17 L49.21 101.39 L71.24 96.36 Z" fill="#7f1125" stroke="#7f1125" stroke-width="0.35"/><path d="M34.04 114.42 L21.68 100.45 L31.54 87.30 Z" fill="#b11c39" stroke="#b11c39" stroke-width="0.35"/><path d="M21.68 100.45 L18.59 82.00 L31.54 64.70 L31.54 87.30 Z" fill="#ce2e4b" stroke="#ce2e4b" stroke-width="0.35"/><path d="M31.54 87.30 L31.54 64.70 L47.93 67.13 L43.66 76.00 Z" fill="#e8687e" stroke="#e8687e" stroke-width="0.35"/><path d="M34.04 114.42 L31.54 87.30 L49.21 101.39 Z" fill="#a41a36" stroke="#a41a36" stroke-width="0.35"/><path d="M18.59 82.00 L21.68 63.55 L31.54 64.70 Z" fill="#e04660" stroke="#e04660" stroke-width="0.35"/><path d="M21.68 63.55 L34.04 50.04 L49.21 50.61 L31.54 64.70 Z" fill="#e8667c" stroke="#e8667c" stroke-width="0.35"/><path d="M31.54 64.70 L49.21 50.61 L57.52 64.94 L47.93 67.13 Z" fill="#f28e9f" stroke="#f28e9f" stroke-width="0.35"/><path d="M18.59 82.00 L31.54 64.70 L31.54 87.30 Z" fill="#d63955" stroke="#d63955" stroke-width="0.35"/><path d="M34.04 50.04 L50.63 43.46 L49.21 50.61 Z" fill="#e76177" stroke="#e76177" stroke-width="0.35"/><path d="M50.63 43.46 L69.37 43.46 L71.24 55.64 L49.21 50.61 Z" fill="#da405a" stroke="#da405a" stroke-width="0.35"/><path d="M49.21 50.61 L71.24 55.64 L65.22 71.08 L57.52 64.94 Z" fill="#e14b65" stroke="#e14b65" stroke-width="0.35"/><path d="M34.04 50.04 L49.21 50.61 L31.54 64.70 Z" fill="#e8687d" stroke="#e8687d" stroke-width="0.35"/><path d="M65.22 71.08 L65.22 80.92 L57.52 87.06 L47.93 84.87 L43.66 76.00 L47.93 67.13 L57.52 64.94 Z" fill="#f59aa9"/><path d="M65.22 71.08 L65.22 80.92 L55.00 76.00 Z" fill="#ffffff" fill-opacity=".35"/></g></svg>